HIERARCHY
ROOT SimulationBone
{
	OFFSET 0.000000 0.000000 0.000000
	CHANNELS 6 Xposition Yposition Zposition Zrotation Yrotation Xrotation 
	JOINT Hips
	{
		OFFSET 0.000000 0.000000 0.000000
		CHANNELS 6 Xposition Yposition Zposition Zrotation Yrotation Xrotation 
		JOINT LeftUpLeg
		{
			OFFSET 0.103456 1.857840 10.548501
			CHANNELS 3 Zrotation Yrotation Xrotation
			JOINT LeftLeg
			{
				OFFSET 43.499992 -0.000038 -0.000006
				CHANNELS 3 Zrotation Yrotation Xrotation
				JOINT LeftFoot
				{
					OFFSET 42.372196 0.000031 0.000002
					CHANNELS 3 Zrotation Yrotation Xrotation
					JOINT LeftToe
					{
						OFFSET 17.299974 -0.000010 -0.000017
						CHANNELS 3 Zrotation Yrotation Xrotation
						End Site
						{
							OFFSET 0.000000 0.000000 0.000000
						}
					}
				}
			}
		}
		JOINT RightUpLeg
		{
			OFFSET 0.103462 1.857831 -10.548510
			CHANNELS 3 Zrotation Yrotation Xrotation
			JOINT RightLeg
			{
				OFFSET 43.500046 -0.000015 0.000008
				CHANNELS 3 Zrotation Yrotation Xrotation
				JOINT RightFoot
				{
					OFFSET 42.372265 -0.000015 0.000004
					CHANNELS 3 Zrotation Yrotation Xrotation
					JOINT RightToe
					{
						OFFSET 17.299995 -0.000004 0.000013
						CHANNELS 3 Zrotation Yrotation Xrotation
						End Site
						{
							OFFSET 0.000000 0.000000 0.000000
						}
					}
				}
			}
		}
		JOINT Spine
		{
			OFFSET 6.901966 -2.603716 -0.000002
			CHANNELS 3 Zrotation Yrotation Xrotation
			JOINT Spine1
			{
				OFFSET 12.588102 -0.000001 0.000005
				CHANNELS 3 Zrotation Yrotation Xrotation
				JOINT Spine2
				{
					OFFSET 12.343201 -0.000023 -0.000011
					CHANNELS 3 Zrotation Yrotation Xrotation
					JOINT Neck
					{
						OFFSET 25.832901 0.000011 0.000007
						CHANNELS 3 Zrotation Yrotation Xrotation
						JOINT Head
						{
							OFFSET 11.766600 -0.000002 0.000002
							CHANNELS 3 Zrotation Yrotation Xrotation
							End Site
							{
								OFFSET 0.000000 0.000000 0.000000
							}
						}
					}
					JOINT LeftShoulder
					{
						OFFSET 19.745907 -1.480350 6.000119
						CHANNELS 3 Zrotation Yrotation Xrotation
						JOINT LeftArm
						{
							OFFSET 11.284122 -0.000013 -0.000023
							CHANNELS 3 Zrotation Yrotation Xrotation
							JOINT LeftForeArm
							{
								OFFSET 33.000057 0.000005 0.000025
								CHANNELS 3 Zrotation Yrotation Xrotation
								JOINT LeftHand
								{
									OFFSET 25.199997 0.000020 0.000019
									CHANNELS 3 Zrotation Yrotation Xrotation
									End Site
									{
										OFFSET 0.000000 0.000000 0.000000
									}
								}
							}
						}
					}
					JOINT RightShoulder
					{
						OFFSET 19.746096 -1.480352 -6.000062
						CHANNELS 3 Zrotation Yrotation Xrotation
						JOINT RightArm
						{
							OFFSET 11.284150 0.000007 -0.000012
							CHANNELS 3 Zrotation Yrotation Xrotation
							JOINT RightForeArm
							{
								OFFSET 33.000092 0.000019 0.000012
								CHANNELS 3 Zrotation Yrotation Xrotation
								JOINT RightHand
								{
									OFFSET 25.199797 0.000118 0.000427
									CHANNELS 3 Zrotation Yrotation Xrotation
									End Site
									{
										OFFSET 0.000000 0.000000 0.000000
									}
								}
							}
						}
					}
				}
			}
		}
	}
}
MOTION
Frames: 13
Frame Time: 0.016667
-144.111357 0.000000 -542.179152 180.000000 -6.110242 180.000000 -1.581924 90.833839 0.071266 88.497237 2.158132 179.518612 154.718265 -9.226396 173.113426 -78.105500 3.913076 -4.662055 71.343715 1.214938 -6.094968 21.454557 0.003091 -0.000001 165.239966 -2.571701 -171.122180 -23.015494 -2.623409 5.293492 83.842518 -2.962554 3.274311 21.454562 -0.003107 -0.000017 6.315669 1.481299 0.717798 2.638250 2.946166 1.468928 2.319794 2.955119 1.451100 11.430117 6.169587 3.733440 -9.328704 -14.249953 8.728736 -154.220969 -81.093702 -27.685038 18.011029 66.873361 58.899786 -24.634764 -6.940513 0.614371 11.618559 13.759939 4.261600 -175.645022 74.623303 5.851077 -5.064454 -51.591085 -20.004995 -49.307271 14.831413 -1.746843 3.304510 7.855286 -4.595327 
-145.543850 0.000000 -542.363924 180.000000 -6.346736 180.000000 -1.651235 90.937414 0.048780 88.329813 2.032360 179.571258 152.650945 -8.751725 172.655071 -77.538380 3.765343 -5.786258 71.694836 2.092375 -5.958603 21.454559 0.003093 -0.000002 166.050506 -2.589539 -170.775186 -22.920461 -2.666242 5.221682 84.570719 -2.898023 3.404564 21.454559 -0.003107 -0.000017 6.297200 1.410231 0.871060 2.604010 2.800902 1.773454 2.285662 2.811697 1.756503 11.227754 5.777871 3.678346 -8.997546 -13.894927 8.485793 -152.911279 -81.044787 -29.013813 18.013815 66.939745 58.783154 -25.199518 -7.413540 0.654051 11.521281 12.939619 3.779256 -177.477134 75.204699 3.982266 -6.762668 -51.600200 -18.866223 -49.659947 15.075774 -1.774125 3.245418 7.180496 -5.365293 
-146.981124 0.000000 -542.527356 180.000000 -6.539587 180.000000 -1.736073 90.985580 0.046097 88.122698 1.983957 179.717646 150.647075 -8.327101 172.415599 -76.443544 3.478106 -6.380002 72.237166 2.534336 -6.024447 21.454557 0.003095 -0.000001 166.752334 -2.660706 -170.261631 -22.951896 -2.740445 5.096365 85.345207 -2.797199 3.541309 21.454557 -0.003108 -0.000017 6.267824 1.352326 1.010509 2.547503 2.682554 2.050419 2.229256 2.695024 2.034182 11.011356 5.372045 3.617947 -8.736188 -13.521293 8.241436 -152.040991 -80.939012 -29.898931 17.884680 66.877139 58.697701 -25.815642 -7.930473 0.697872 11.145138 11.257052 3.025010 -179.319103 75.622799 2.103992 -8.415284 -51.393126 -17.839606 -50.062526 15.315191 -1.803395 3.303194 6.505188 -5.914117 
-148.424470 0.000000 -542.666717 180.000000 -6.690742 180.000000 -1.821565 90.983687 0.050577 87.924475 1.996776 179.873408 148.763644 -7.931664 172.285592 -74.892265 3.120616 -6.511697 72.752422 2.692055 -5.945846 21.454553 0.003092 0.000001 167.409201 -2.774557 -169.675258 -23.091850 -2.828386 4.915926 86.157655 -2.660398 3.682576 21.454559 -0.003108 -0.000017 6.239207 1.308881 1.148274 2.492517 2.593278 2.324398 2.174354 2.607401 2.308698 10.815629 4.945637 3.548977 -8.550812 -13.175486 8.003400 -151.622934 -80.749218 -30.328361 17.594164 66.670938 58.648009 -26.491036 -8.417951 0.740767 10.326892 9.363515 1.941724 178.882401 75.860628 0.268897 -10.030860 -50.897321 -16.887719 -50.531911 15.440576 -1.827331 3.456192 5.942053 -6.061548 
-149.874992 0.000000 -542.778306 180.000000 -6.801197 180.000000 -1.908996 90.948174 0.065603 87.736121 2.039759 -179.999459 147.076006 -7.585907 172.228261 -72.877161 2.681665 -6.347051 73.134386 2.614430 -5.933983 21.454551 0.003089 0.000002 168.039333 -2.915695 -169.059572 -23.299001 -2.943547 4.681354 86.985320 -2.486450 3.838794 21.454562 -0.003107 -0.000017 6.212729 1.272339 1.292516 2.441914 2.517753 2.611567 2.123839 2.533608 2.596321 10.645347 4.483947 3.481772 -8.441605 -12.832640 7.772512 -151.586893 -80.532397 -30.371129 17.239617 66.415028 58.407985 -27.249394 -8.865708 0.782744 9.481311 7.424761 1.005601 177.248040 76.012747 -1.398938 -11.606412 -50.238387 -15.973039 -50.994055 15.496584 -1.846011 3.525820 5.520977 -6.068052 
-151.334337 0.000000 -542.858873 180.000000 -6.872853 180.000000 -1.998774 90.889858 0.096086 87.552139 2.091523 -179.916824 145.638410 -7.310569 172.212320 -70.401815 2.163259 -6.060294 73.338878 2.342579 -6.249162 21.454550 0.003090 0.000002 168.649439 -3.073116 -168.454371 -23.549759 -3.092514 4.406062 87.817785 -2.283295 4.019343 21.454562 -0.003106 -0.000018 6.187682 1.236063 1.447033 2.394219 2.442645 2.919352 2.076258 2.460357 2.904558 10.495089 3.979971 3.430606 -8.406781 -12.462277 7.553251 -151.817772 -80.352148 -30.141548 16.936365 66.210255 57.790316 -28.113819 -9.287202 0.825537 9.001191 5.500042 0.622479 175.818983 76.182564 -2.855447 -13.135809 -49.561294 -15.050263 -51.377258 15.540620 -1.861417 3.360242 5.239346 -6.227906 
-152.805633 0.000000 -542.907009 180.000000 -6.909043 180.000000 -2.070718 90.785988 0.138420 87.389115 2.184825 -179.849944 144.402356 -7.086197 172.147637 -67.598607 1.687246 -5.747083 73.459073 1.971720 -6.796207 21.454551 0.003092 0.000001 169.244629 -3.258497 -167.935897 -23.915771 -3.223795 4.150469 88.707941 -2.096118 4.216861 21.454560 -0.003107 -0.000018 6.165477 1.205904 1.602084 2.352189 2.379804 3.228416 2.034353 2.399381 3.214001 10.348923 3.465542 3.411501 -8.440992 -12.082889 7.370359 -152.126956 -80.217805 -29.831074 16.742458 66.080916 56.993835 -29.088972 -9.727929 0.871506 8.755735 3.601313 0.516870 174.412104 76.388674 -4.287113 -14.553455 -48.895694 -14.106139 -51.708814 15.527342 -1.871840 3.047718 5.042946 -6.541454 
-154.291948 0.000000 -542.924146 180.000000 -6.912377 180.000000 -2.111544 90.621237 0.188026 87.257892 2.340907 -179.764820 143.318753 -6.877387 171.957390 -64.569292 1.356835 -5.461949 73.572959 1.615132 -7.353516 21.454551 0.003093 0.000000 169.831544 -3.474930 -167.567032 -24.442423 -3.290741 3.968939 89.689631 -1.966320 4.418821 21.454557 -0.003109 -0.000018 6.147074 1.185990 1.745796 2.317675 2.337665 3.515107 1.999956 2.358973 3.500943 10.191114 2.981618 3.435828 -8.535881 -11.726563 7.248369 -152.328599 -80.125273 -29.628968 16.651795 66.029862 56.255002 -30.152546 -10.225243 0.923360 8.537874 1.742133 0.351999 172.843887 76.618467 -5.881332 -15.806266 -48.252630 -13.139703 -52.032960 15.424531 -1.876157 2.735450 4.852884 -6.931907 
-155.793119 0.000000 -542.910830 180.000000 -6.885815 180.000000 -2.156075 90.443550 0.255246 87.123545 2.480075 -179.655115 142.439646 -6.612000 171.683389 -61.174199 1.063555 -5.229016 73.565917 1.404749 -7.546537 21.454553 0.003093 0.000000 170.424052 -3.673095 -167.319212 -24.972073 -3.323786 3.845554 90.658227 -1.882174 4.611961 21.454555 -0.003111 -0.000018 6.129300 1.161144 1.871330 2.283785 2.286087 3.765352 1.966171 2.308906 3.751498 10.018231 2.566687 3.494325 -8.676439 -11.431167 7.191178 -152.282985 -80.069112 -29.677019 16.475353 66.044552 55.589340 -31.191110 -10.752142 0.978375 8.255519 0.028357 0.159046 171.172066 76.835976 -7.580117 -16.952692 -47.678053 -12.166893 -52.363600 15.355191 -1.882336 2.571022 4.542797 -7.303144 
-157.306630 0.000000 -542.865515 180.000000 -6.833928 180.000000 -2.236654 90.298227 0.352838 86.950939 2.536499 -179.520754 141.813358 -6.237306 171.391655 -57.289112 0.692699 -5.081299 73.322953 1.430157 -7.126929 21.454555 0.003092 0.000000 171.036000 -3.820530 -167.146299 -25.345206 -3.362521 3.754358 91.508050 -1.822848 4.788015 21.454553 -0.003111 -0.000018 6.107802 1.119992 1.974203 2.241340 2.202552 3.969871 1.923819 2.226605 3.956521 9.842361 2.239744 3.573184 -8.846682 -11.223075 7.192639 -151.918025 -80.034934 -30.048499 16.039095 66.098551 54.962158 -32.104265 -11.270717 1.030748 7.878951 -1.429926 0.033248 169.476881 77.009775 -9.302843 -18.052818 -47.209608 -11.205648 -52.694964 15.428580 -1.898172 2.635943 4.067461 -7.538274 
-158.831706 0.000000 -542.789457 180.000000 -6.760712 180.000000 -2.334329 90.156708 0.477265 86.751722 2.600646 -179.353311 141.372880 -5.826796 171.130458 -53.092094 0.316490 -5.052978 72.927240 1.593471 -6.506984 21.454557 0.003090 0.000001 171.673649 -4.001009 -167.027276 -25.599233 -3.407473 3.697942 92.267221 -1.788236 4.958048 21.454555 -0.003110 -0.000018 6.077941 1.085635 2.054285 2.181880 2.133411 4.128811 1.864429 2.158421 4.115880 9.724180 1.944334 3.661636 -9.032797 -11.077383 7.225663 -151.395989 -79.975430 -30.580103 15.408385 66.132108 54.355866 -32.937538 -11.762474 1.079915 7.547144 -2.601157 -0.045164 167.603989 77.137064 -11.207060 -19.052726 -46.821301 -10.271554 -52.971251 15.544141 -1.915625 2.743160 3.745990 -7.452647 
-160.369363 0.000000 -542.687667 180.000000 -6.669888 180.000000 -2.424578 89.983439 0.617462 86.544349 2.762590 -179.145790 141.055621 -5.453051 170.889519 -48.765119 0.059302 -5.120731 72.507404 1.754840 -6.118125 21.454556 0.003088 0.000002 172.340287 -4.291493 -166.947840 -25.801888 -3.454515 3.681979 92.986900 -1.781283 5.136153 21.454559 -0.003109 -0.000018 6.036583 1.079149 2.112359 2.100011 2.120903 4.244099 1.782604 2.146607 4.231242 9.699962 1.636785 3.751879 -9.215482 -10.972347 7.268694 -150.869998 -79.856057 -31.117607 14.707801 66.099134 53.769210 -33.765083 -12.220321 1.127588 7.387491 -3.471377 -0.104782 165.464786 77.218618 -13.383022 -19.913199 -46.486364 -9.374665 -53.126547 15.586534 -1.923891 2.706901 3.858224 -6.959106 
-161.919616 0.000000 -542.564166 180.000000 -6.565646 180.000000 -2.507068 89.788742 0.762756 86.324560 2.954696 -178.903960 140.926022 -5.056899 170.439707 -44.211755 0.040644 -5.083091 72.184252 1.814981 -5.809656 21.454555 0.003088 0.000002 173.035889 -4.625303 -166.887626 -25.945106 -3.519095 3.696193 93.676822 -1.793699 5.329370 21.454562 -0.003109 -0.000017 5.986609 1.079032 2.148583 2.000738 2.121912 4.315651 1.683365 2.148046 4.302787 9.660306 1.400905 3.846212 -9.350752 -10.949577 7.343707 -150.199887 -79.722959 -31.802031 14.038233 66.038180 53.227826 -34.629068 -12.664252 1.175324 7.299877 -4.018980 -0.070604 163.501955 77.266305 -15.379874 -20.776017 -46.230268 -8.498237 -53.106574 15.590578 -1.923360 2.615622 4.167473 -6.442290 
